<?xml version="1.0" encoding="UTF-8"?>
<svg xmlns="http://www.w3.org/2000/svg" xmlns:xlink="http://www.w3.org/1999/xlink" >
    <symbol id="star" viewBox="0 0 512 512">
        <path d="M480 208H308L256 48l-52 160H32l140 96-54 160 138-100 138 100-54-160z"
              fill="none" stroke="currentColor" stroke-linejoin="round" stroke-width="32"/>
    </symbol>
    <symbol id="star-half" viewBox="0 0 512 512">
        <path fill="#cbc541" d="M256 48v316L118 464l54-160-140-96h172l52-160z"/>
        <path d="M480 208H308L256 48l-52 160H32l140 96-54 160 138-100 138 100-54-160z"
              fill="none" stroke="currentColor" stroke-linejoin="round" stroke-width="32"/>
    </symbol>
    <symbol id="star-full" viewBox="0 0 512 512">
        <path d="M480 208H308L256 48l-52 160H32l140 96-54 160 138-100 138 100-54-160z"
              fill="#cbc541" stroke="currentColor" stroke-linejoin="round" stroke-width="32"/>
    </symbol>
    <symbol id="info" viewBox="0 0 192 512">
        <path fill="currentColor" d="M160 448h-32V224c0-17.69-14.33-32-32-32L32 192c-17.67 0-32 14.31-32 32s14.33 31.1 32 31.1h32v192H32c-17.67 0-32 14.31-32 32s14.33 32 32 32h128c17.67 0 32-14.31 32-32S177.7 448 160 448zM96 128c26.51 0 48-21.49 48-48S122.5 32.01 96 32.01s-48 21.49-48 48S69.49 128 96 128z"/>
    </symbol>
    <symbol id="help" viewBox="0 0 512 512">
        <path fill="none" stroke="currentColor" d="M256 80a176 176 0 10176 176A176 176 0 00256 80z" stroke-miterlimit="10" stroke-width="32"/>
        <path fill="none" stroke="currentColor" d="M200 202.29s.84-17.5 19.57-32.57C230.68 160.77 244 158.18 256 158c10.93-.14 20.69 1.67 26.53 4.45 10 4.76 29.47 16.38 29.47 41.09 0 26-17 37.81-36.37 50.8S251 281.43 251 296" stroke-linecap="round" stroke-miterlimit="10" stroke-width="28"/>
        <circle stroke="currentColor" cx="250" cy="348" r="20"/>
    </symbol>
    <symbol id="quality" viewBox="0 0 512 512">
        <circle cx="256" cy="160" r="128" fill="none" stroke="currentColor" stroke-linecap="round" stroke-linejoin="round" stroke-width="32"/>
        <path d="M143.65 227.82L48 400l86.86-.42a16 16 0 0113.82 7.8L192 480l88.33-194.32" fill="none" stroke="currentColor" stroke-linecap="round" stroke-linejoin="round" stroke-width="32"/>
        <path d="M366.54 224L464 400l-86.86-.42a16 16 0 00-13.82 7.8L320 480l-64-140.8" fill="none" stroke="currentColor" stroke-linecap="round" stroke-linejoin="round" stroke-width="32"/>
        <circle cx="256" cy="160" r="64" fill="none" stroke="currentColor" stroke-linecap="round" stroke-linejoin="round" stroke-width="32"/>
    </symbol>
    <symbol id="vote" viewBox="0 0 512 512">
        <path fill="currentColor" d="M321.94 98L158.82 237.78a24 24 0 000 36.44L321.94 414c15.57 13.34 39.62 2.28 39.62-18.22v-279.6c0-20.5-24.05-31.56-39.62-18.18z"/>
    </symbol>
    <symbol id="helped" viewBox="0 0 384 512">
        <path fill="currentColor" d="M336 64h-53.88C268.9 26.8 233.7 0 192 0S115.1 26.8 101.9 64H48C21.5 64 0 85.48 0 112v352C0 490.5 21.5 512 48 512h288c26.5 0 48-21.48 48-48v-352C384 85.48 362.5 64 336 64zM192 64c17.67 0 32 14.33 32 32s-14.33 32-32 32S160 113.7 160 96S174.3 64 192 64zM282.9 262.8l-88 112c-4.047 5.156-10.02 8.438-16.53 9.062C177.6 383.1 176.8 384 176 384c-5.703 0-11.25-2.031-15.62-5.781l-56-48c-10.06-8.625-11.22-23.78-2.594-33.84c8.609-10.06 23.77-11.22 33.84-2.594l36.98 31.69l72.52-92.28c8.188-10.44 23.3-12.22 33.7-4.062C289.3 237.3 291.1 252.4 282.9 262.8z"/>
    </symbol>
    <symbol id="hands-on" viewBox="0 0 512 512">
        <path fill="currentColor" d="M328.7 52.28L431.7 119.8C449.5 132.9 453.3 157.9 440.2 175.7C427.1 193.5 402.1 197.3 384.3 184.2L296.6 127.1H191.1C183.2 127.1 175.1 135.2 175.1 143.1C175.1 152.7 183.2 159.1 191.1 159.1H254.2C270.2 159.1 284.1 170.9 287.6 186.6C290.8 206.6 275.5 223.1 255.1 223.1H143.1C116.1 223.1 90.87 214.7 69.87 197.7L23.37 159.1L15.1 160C7.25 160 0 152.7 0 143.1V47.99C0 39.25 7.25 32 15.1 32H266.1C289 32 310.9 39.19 328.7 52.28L328.7 52.28zM151.3 459.7L16.27 360.2C-1.509 347.1-5.305 322.1 7.803 304.3C20.93 286.5 45.94 282.7 63.74 295.8L183.4 384H304C312.8 384 320 376.8 320 368C320 359.3 312.8 352 304 352H225.8C209.8 352 195 341.1 192.4 325.4C189.2 305.4 204.5 288 224 288H352C379 288 405.1 297.3 426.1 314.3L472.6 352L496 352C504.7 352 512 359.3 512 368V464C512 472.8 504.7 480 496 480H213C190.1 480 169.1 472.8 151.3 459.7V459.7z"/>
    </symbol>
    <symbol id="understandable" viewBox="0 0 512 512">
        <path d="M304 384v-24c0-29 31.54-56.43 52-76 28.84-27.57 44-64.61 44-108 0-80-63.73-144-144-144a143.6 143.6 0 00-144 144c0 41.84 15.81 81.39 44 108 20.35 19.21 52 46.7 52 76v24M224 480h64M208 432h96M256 384V256" fill="none" stroke="currentColor" stroke-linecap="round" stroke-linejoin="round" stroke-width="32"/>
        <path d="M294 240s-21.51 16-38 16-38-16-38-16" fill="none" stroke="currentColor" stroke-linecap="round" stroke-linejoin="round" stroke-width="32"/>
    </symbol>
    <symbol id="correct" viewBox="0 0 512 512">
        <path d="M448 256c0-106-86-192-192-192S64 150 64 256s86 192 192 192 192-86 192-192z" fill="none" stroke="currentColor" stroke-miterlimit="10" stroke-width="32"/>
        <path fill="none" stroke="currentColor" stroke-linecap="round" stroke-linejoin="round" stroke-width="32" d="M368 192L256.13 320l-47.95-48M191.95 320L144 272M305.71 192l-51.55 59"/>
    </symbol>
    <!-- use xlink:href="#star-full"/ -->
</svg>
